<?xml version="1.0" encoding="utf-8"?>
<!-- Generator: Adobe Illustrator 17.0.0, SVG Export Plug-In . SVG Version: 6.00 Build 0)  -->
<!DOCTYPE svg PUBLIC "-//W3C//DTD SVG 1.1//EN" "http://www.w3.org/Graphics/SVG/1.1/DTD/svg11.dtd">
<svg version="1.1" id="Layer_1" xmlns="http://www.w3.org/2000/svg" xmlns:xlink="http://www.w3.org/1999/xlink" x="0px" y="0px"
	 width="198.084px" height="96.228px" viewBox="0 0 198.084 96.228" enable-background="new 0 0 198.084 96.228"
	 xml:space="preserve">
<g>
	<g>
		<polygon fill="#999999" points="113.595,96.228 0,33.625 77.506,0 191.101,62.604 		"/>
		<polygon fill="#FFFFFF" points="112.463,95.605 1.132,34.248 65.15,6.475 176.481,67.832 		"/>
		<path fill="#FFFFFF" d="M147.953,46.255c-0.719,0.312-1.818,0.28-2.456-0.072l-59.39-32.731c-0.638-0.351-0.572-0.889,0.147-1.201
			l0,0c0.719-0.312,1.818-0.28,2.455,0.072l59.389,32.73C148.737,45.405,148.672,45.943,147.953,46.255L147.953,46.255z"/>
		<path fill="#FFFFFF" d="M160.896,53.388c-0.719,0.312-1.818,0.28-2.456-0.072l-59.389-32.73c-0.638-0.351-0.572-0.889,0.147-1.201
			l0,0c0.719-0.312,1.818-0.28,2.455,0.072l59.389,32.73C161.68,52.539,161.614,53.076,160.896,53.388L160.896,53.388z"/>
		<path fill="#10BBBB" d="M85.19,7.529c-0.561,0.243-1.419,0.218-1.916-0.056c-0.498-0.274-0.446-0.694,0.115-0.937
			s1.419-0.218,1.916,0.056C85.802,6.866,85.75,7.286,85.19,7.529z"/>
		<path fill="#FCEE21" d="M82.109,5.832c-0.561,0.243-1.419,0.218-1.916-0.056c-0.497-0.274-0.446-0.694,0.115-0.937
			c0.561-0.243,1.419-0.218,1.916,0.056C82.721,5.169,82.67,5.588,82.109,5.832z"/>
		<path fill="#EB2629" d="M79.029,4.134c-0.561,0.243-1.419,0.218-1.917-0.056c-0.497-0.274-0.446-0.694,0.115-0.937
			c0.561-0.243,1.419-0.218,1.916,0.056C79.641,3.471,79.589,3.891,79.029,4.134z"/>
		<path fill="#FFFFFF" d="M164.965,55.631c-0.718,0.312-0.784,0.849-0.147,1.201l13.822,7.618c0.638,0.352,1.737,0.383,2.456,0.072
			l0,0c0.719-0.312,0.784-0.849,0.147-1.201l-13.822-7.618C166.783,55.351,165.684,55.319,164.965,55.631L164.965,55.631z"/>
		<path fill="none" stroke="#999999" stroke-miterlimit="10" d="M83.089,9.578c0.637,0.351,0.572,0.889-0.147,1.201
			c-0.718,0.312-1.818,0.28-2.455-0.072c-0.638-0.352-0.572-0.889,0.146-1.201"/>
		<path fill="none" stroke="#999999" stroke-miterlimit="10" d="M75.261,6.369c-0.099,0.043-0.25,0.038-0.337-0.01l-2.094-1.154
			c-0.088-0.048-0.079-0.122,0.02-0.165l0,0c0.099-0.043,0.25-0.039,0.337,0.01l2.094,1.154C75.368,6.253,75.359,6.326,75.261,6.369
			L75.261,6.369z"/>
		<path fill="none" stroke="#999999" stroke-miterlimit="10" d="M78.67,8.248c-0.099,0.043-0.25,0.038-0.337-0.01l-2.094-1.154
			c-0.088-0.048-0.078-0.122,0.02-0.165l0,0c0.099-0.043,0.25-0.038,0.337,0.01l2.094,1.154C78.778,8.131,78.769,8.205,78.67,8.248
			L78.67,8.248z"/>
		<polygon fill="#8DC641" points="140.791,66.118 64.374,24.004 81.175,16.715 157.591,58.83 		"/>
		<polygon fill="#DEDEDD" points="4.886,34.525 19.455,42.554 80.223,16.191 65.654,8.161 		"/>
		<polygon fill="#DEDEDD" points="97.512,85.573 112.081,93.602 172.85,67.239 158.281,59.209 		"/>
		<polygon fill="#DEDEDD" points="116.76,76.544 66.252,48.708 87.147,39.643 137.655,67.479 		"/>
		<path fill="#BDBEC0" d="M85.031,39.061c-0.327,0.142-0.828,0.127-1.119-0.033L60.578,26.168c-0.29-0.16-0.26-0.405,0.067-0.547
			l0,0c0.327-0.142,0.828-0.128,1.119,0.033l23.333,12.86C85.388,38.674,85.358,38.918,85.031,39.061L85.031,39.061z"/>
		<path fill="#BDBEC0" d="M82.492,40.162c-0.327,0.142-0.828,0.127-1.119-0.033L58.04,27.27c-0.291-0.16-0.261-0.405,0.067-0.547
			l0,0c0.327-0.142,0.828-0.128,1.119,0.033l23.333,12.859C82.85,39.775,82.82,40.02,82.492,40.162L82.492,40.162z"/>
		<path fill="#BDBEC0" d="M79.954,41.263c-0.327,0.142-0.828,0.127-1.119-0.033L55.502,28.371c-0.29-0.16-0.26-0.405,0.067-0.547
			l0,0c0.327-0.142,0.828-0.127,1.119,0.033l23.334,12.859C80.311,40.876,80.281,41.121,79.954,41.263L79.954,41.263z"/>
		<path fill="#BDBEC0" d="M77.416,42.364c-0.327,0.142-0.828,0.127-1.119-0.033l-23.334-12.86c-0.291-0.16-0.26-0.405,0.067-0.547
			l0,0c0.327-0.142,0.828-0.127,1.119,0.033l23.333,12.859C77.773,41.977,77.743,42.222,77.416,42.364L77.416,42.364z"/>
		<path fill="#BDBEC0" d="M74.877,43.465c-0.327,0.142-0.828,0.127-1.119-0.033l-23.333-12.86c-0.291-0.16-0.26-0.405,0.067-0.547
			l0,0c0.327-0.142,0.828-0.127,1.119,0.033l23.333,12.859C75.235,43.078,75.204,43.323,74.877,43.465L74.877,43.465z"/>
		<path fill="#BDBEC0" d="M72.339,44.567c-0.327,0.142-0.828,0.127-1.119-0.033l-23.333-12.86c-0.291-0.16-0.261-0.405,0.067-0.547
			l0,0c0.327-0.142,0.828-0.127,1.119,0.033L72.406,44.02C72.696,44.18,72.666,44.425,72.339,44.567L72.339,44.567z"/>
		<path fill="#BDBEC0" d="M69.8,45.668c-0.327,0.142-0.828,0.127-1.119-0.033l-23.333-12.86c-0.291-0.16-0.26-0.405,0.067-0.547l0,0
			c0.327-0.142,0.828-0.127,1.119,0.033l23.333,12.86C70.158,45.281,70.128,45.526,69.8,45.668L69.8,45.668z"/>
		<path fill="#BDBEC0" d="M67.262,46.769c-0.327,0.142-0.828,0.127-1.119-0.033L42.81,33.877c-0.291-0.16-0.26-0.405,0.067-0.547
			l0,0c0.327-0.142,0.828-0.127,1.119,0.033l23.334,12.86C67.619,46.382,67.589,46.627,67.262,46.769L67.262,46.769z"/>
		<path fill="#BDBEC0" d="M64.724,47.87c-0.327,0.142-0.828,0.127-1.119-0.033l-23.333-12.86c-0.291-0.16-0.26-0.405,0.067-0.547
			l0,0c0.327-0.142,0.828-0.127,1.119,0.033l23.333,12.859C65.081,47.483,65.051,47.728,64.724,47.87L64.724,47.87z"/>
		<path fill="#BDBEC0" d="M59.808,50.003c-0.327,0.142-0.828,0.127-1.119-0.033l-23.333-12.86c-0.29-0.16-0.26-0.405,0.067-0.547
			l0,0c0.327-0.142,0.828-0.128,1.119,0.033l23.333,12.859C60.165,49.616,60.135,49.861,59.808,50.003L59.808,50.003z"/>
		<path fill="#BDBEC0" d="M85.577,64.205c-0.327,0.142-0.828,0.128-1.119-0.033L61.125,51.313c-0.291-0.16-0.26-0.405,0.067-0.547
			l0,0c0.327-0.142,0.828-0.127,1.119,0.033l23.334,12.859C85.934,63.818,85.904,64.063,85.577,64.205L85.577,64.205z"/>
		<path fill="#BDBEC0" d="M111.346,78.407c-0.327,0.142-0.828,0.127-1.119-0.033L86.894,65.515c-0.291-0.16-0.26-0.405,0.067-0.547
			l0,0c0.327-0.142,0.828-0.127,1.119,0.033l23.333,12.859C111.704,78.02,111.674,78.265,111.346,78.407L111.346,78.407z"/>
		<path fill="#BDBEC0" d="M56.903,51.263c-0.327,0.142-0.828,0.127-1.119-0.033l-23.333-12.86c-0.291-0.16-0.26-0.405,0.067-0.547
			l0,0c0.327-0.142,0.828-0.127,1.119,0.033l23.333,12.86C57.261,50.876,57.231,51.121,56.903,51.263L56.903,51.263z"/>
		<path fill="#BDBEC0" d="M82.673,65.465c-0.327,0.142-0.828,0.127-1.119-0.033L58.22,52.573c-0.291-0.16-0.26-0.405,0.067-0.547
			l0,0c0.327-0.142,0.828-0.127,1.119,0.033l23.333,12.859C83.03,65.078,83,65.323,82.673,65.465L82.673,65.465z"/>
		<path fill="#BDBEC0" d="M108.442,79.667c-0.327,0.142-0.828,0.127-1.119-0.033L83.99,66.774c-0.29-0.16-0.26-0.405,0.067-0.547
			l0,0c0.327-0.142,0.828-0.128,1.119,0.033l23.333,12.859C108.799,79.28,108.769,79.525,108.442,79.667L108.442,79.667z"/>
		<path fill="#BDBEC0" d="M53.999,52.523c-0.327,0.142-0.828,0.127-1.119-0.033L29.547,39.631c-0.29-0.16-0.26-0.405,0.067-0.547
			l0,0c0.327-0.142,0.828-0.127,1.119,0.033l23.333,12.86C54.356,52.136,54.326,52.381,53.999,52.523L53.999,52.523z"/>
		<path fill="#BDBEC0" d="M79.768,66.725c-0.327,0.142-0.828,0.127-1.119-0.033L55.316,53.833c-0.291-0.16-0.26-0.405,0.067-0.547
			l0,0c0.327-0.142,0.828-0.128,1.119,0.033l23.333,12.86C80.125,66.338,80.095,66.583,79.768,66.725L79.768,66.725z"/>
		<path fill="#BDBEC0" d="M105.537,80.927c-0.327,0.142-0.828,0.127-1.119-0.033L81.085,68.035c-0.291-0.16-0.26-0.405,0.067-0.547
			l0,0c0.327-0.142,0.828-0.127,1.119,0.033l23.334,12.859C105.895,80.54,105.865,80.785,105.537,80.927L105.537,80.927z"/>
		<path fill="#BDBEC0" d="M51.094,53.783c-0.327,0.142-0.828,0.127-1.119-0.033L26.642,40.891c-0.291-0.16-0.26-0.405,0.067-0.547
			l0,0c0.327-0.142,0.828-0.127,1.119,0.033l23.333,12.859C51.452,53.396,51.421,53.641,51.094,53.783L51.094,53.783z"/>
		<path fill="#BDBEC0" d="M76.863,67.985c-0.327,0.142-0.828,0.127-1.119-0.033l-23.334-12.86c-0.29-0.16-0.26-0.405,0.067-0.547
			l0,0c0.327-0.142,0.828-0.127,1.119,0.033l23.334,12.86C77.221,67.598,77.191,67.843,76.863,67.985L76.863,67.985z"/>
		<path fill="#BDBEC0" d="M102.633,82.187c-0.327,0.142-0.828,0.128-1.119-0.033L78.181,69.295c-0.291-0.16-0.26-0.405,0.067-0.547
			l0,0c0.327-0.142,0.828-0.127,1.119,0.033L102.7,81.64C102.99,81.8,102.96,82.045,102.633,82.187L102.633,82.187z"/>
		<path fill="#BDBEC0" d="M48.19,55.043c-0.327,0.142-0.828,0.127-1.119-0.033l-23.333-12.86c-0.291-0.16-0.261-0.405,0.067-0.547
			l0,0c0.327-0.142,0.828-0.127,1.119,0.033l23.333,12.86C48.547,54.656,48.517,54.901,48.19,55.043L48.19,55.043z"/>
		<path fill="#BDBEC0" d="M73.959,69.245c-0.327,0.142-0.828,0.127-1.119-0.033l-23.333-12.86c-0.291-0.16-0.26-0.405,0.067-0.547
			l0,0c0.327-0.142,0.828-0.127,1.119,0.033l23.333,12.859C74.316,68.858,74.286,69.103,73.959,69.245L73.959,69.245z"/>
		<path fill="#BDBEC0" d="M99.728,83.447c-0.327,0.142-0.828,0.127-1.119-0.033L75.276,70.555c-0.29-0.16-0.26-0.405,0.067-0.547
			l0,0c0.327-0.142,0.828-0.127,1.119,0.033L99.795,82.9C100.086,83.06,100.055,83.305,99.728,83.447L99.728,83.447z"/>
		
			<line fill="none" stroke="#4D4D4D" stroke-width="0.5" stroke-miterlimit="10" x1="173.515" y1="67.807" x2="112.747" y2="94.17"/>
		<path fill="#DEDEDD" d="M154.228,76.511c-0.213,0.093-0.539,0.083-0.728-0.021l0,0c-0.189-0.104-0.17-0.264,0.044-0.356
			l3.896-1.69c0.213-0.092,0.539-0.083,0.728,0.021l0,0c0.189,0.104,0.169,0.264-0.044,0.356L154.228,76.511z"/>
		
			<text transform="matrix(0.8139 0.4486 -0.9174 0.398 77.0697 26.4172)" fill="#FFFFFF" font-family="'ProximaNova-Bold'" font-size="10.2183">TASTY WEBSITE</text>
	</g>
	<path fill="#F2F2F2" d="M91.453,10.069c0.666,3.139,5.883,5.447,11.652,5.154c5.769-0.293,9.906-3.075,9.24-6.214
		c-0.666-3.139-5.883-5.447-11.652-5.154S90.787,6.93,91.453,10.069z"/>
	<path fill="#F2F2F2" d="M99.023,18.951c0.666,3.139,5.883,5.447,11.652,5.154c5.769-0.293,9.906-3.075,9.24-6.214
		c-0.666-3.139-5.883-5.447-11.652-5.154C102.494,13.03,98.357,15.812,99.023,18.951z"/>
	<path fill="#F2F2F2" d="M110.272,18.381c0.666,3.139,5.883,5.447,11.653,5.154c5.769-0.293,9.906-3.075,9.24-6.214
		c-0.666-3.139-5.883-5.447-11.652-5.154C113.743,12.46,109.606,15.242,110.272,18.381z"/>
	<path fill="#F2F2F2" d="M85.315,16.867c0.666,3.139,5.883,5.447,11.652,5.154c5.769-0.293,9.906-3.075,9.24-6.214
		c-0.666-3.139-5.883-5.447-11.652-5.154S84.649,13.728,85.315,16.867z"/>
	<path fill="#F2F2F2" d="M128.989,33.907c0.371,1.747,3.459,3.021,6.899,2.847s5.927-1.732,5.557-3.479
		c-0.371-1.747-3.459-3.021-6.899-2.847C131.106,30.603,128.618,32.16,128.989,33.907z"/>
	<path fill="#F2F2F2" d="M152.14,41.114c0.371,1.747,3.459,3.021,6.899,2.847c3.44-0.174,5.927-1.732,5.557-3.479
		c-0.371-1.747-3.46-3.021-6.899-2.847C154.257,37.81,151.769,39.368,152.14,41.114z"/>
	<path fill="#F2F2F2" d="M139.314,36.821c0.371,1.747,3.46,3.021,6.899,2.847c3.44-0.174,5.927-1.732,5.557-3.479
		c-0.371-1.747-3.459-3.021-6.899-2.847C141.431,33.517,138.943,35.075,139.314,36.821z"/>
	<path fill="#F2F2F2" d="M129.467,30.004c0.371,1.747,3.459,3.022,6.899,2.847c3.44-0.175,5.927-1.732,5.557-3.479
		c-0.371-1.747-3.46-3.021-6.899-2.847C131.584,26.699,129.096,28.257,129.467,30.004z"/>
	<path fill="#F2F2F2" d="M160.736,47.242c0.371,1.747,3.46,3.022,6.899,2.847c3.44-0.174,5.927-1.732,5.557-3.479
		c-0.371-1.747-3.459-3.021-6.899-2.847C162.853,43.938,160.365,45.495,160.736,47.242z"/>
	<path fill="#F2F2F2" d="M185.592,62.334c0.371,1.747,3.459,3.021,6.899,2.847c3.44-0.174,5.927-1.732,5.557-3.479
		c-0.371-1.747-3.459-3.022-6.899-2.847C187.709,59.03,185.221,60.587,185.592,62.334z"/>
	<path fill="#F2F2F2" d="M107.933,25.218c0.371,1.747,3.46,3.021,6.899,2.847c3.439-0.174,5.927-1.732,5.557-3.479
		c-0.371-1.747-3.46-3.021-6.899-2.847S107.562,23.471,107.933,25.218z"/>
	<path fill="#F2F2F2" d="M100.628,26.515c0.371,1.747,3.46,3.021,6.899,2.847c3.439-0.174,5.927-1.732,5.557-3.479
		c-0.371-1.747-3.46-3.021-6.899-2.847C102.745,23.21,100.257,24.768,100.628,26.515z"/>
	<path fill="#F2F2F2" d="M125.641,28.293c0.187,0.881,1.744,1.523,3.478,1.435c1.734-0.088,2.988-0.873,2.801-1.754
		c-0.187-0.88-1.744-1.523-3.478-1.435C126.708,26.628,125.454,27.413,125.641,28.293z"/>
	<path fill="#F2F2F2" d="M110.448,28.138c0.187,0.881,1.744,1.523,3.478,1.435c1.734-0.088,2.988-0.873,2.801-1.754
		c-0.187-0.881-1.744-1.523-3.478-1.435C111.515,26.472,110.261,27.257,110.448,28.138z"/>
	<path fill="#F2F2F2" d="M114.197,27.947c0.187,0.881,1.744,1.523,3.478,1.435c1.734-0.088,2.988-0.873,2.801-1.754
		c-0.187-0.88-1.744-1.523-3.478-1.435C115.264,26.282,114.01,27.067,114.197,27.947z"/>
	<path fill="#F2F2F2" d="M115.627,25.754c0.371,1.747,3.46,3.021,6.899,2.847c3.44-0.174,5.927-1.732,5.557-3.479
		c-0.371-1.747-3.459-3.021-6.899-2.847C117.744,22.449,115.256,24.007,115.627,25.754z"/>
	<path fill="#F2F2F2" d="M82.392,20.954c0.371,1.747,3.459,3.021,6.899,2.847c3.44-0.175,5.927-1.732,5.557-3.479
		c-0.371-1.747-3.46-3.021-6.899-2.847C84.51,17.649,82.022,19.207,82.392,20.954z"/>
	<path fill="#F2F2F2" d="M82.906,14.441c0.371,1.747,3.459,3.022,6.899,2.847c3.44-0.174,5.927-1.732,5.557-3.479
		c-0.371-1.747-3.459-3.022-6.899-2.847C85.023,11.137,82.535,12.694,82.906,14.441z"/>
	<path fill="#F2F2F2" d="M87.363,8.655c0.371,1.747,3.459,3.021,6.899,2.847c3.44-0.175,5.928-1.732,5.557-3.479
		c-0.371-1.747-3.459-3.022-6.899-2.847C89.48,5.351,86.993,6.908,87.363,8.655z"/>
	<path fill="#F2F2F2" d="M84.197,11.596c0.371,1.747,3.459,3.021,6.899,2.847c3.44-0.175,5.927-1.732,5.557-3.479
		c-0.371-1.747-3.459-3.022-6.899-2.847C86.314,8.291,83.826,9.849,84.197,11.596z"/>
</g>
</svg>
