<svg width="179" height="48" viewBox="0 0 179 48" fill="none" xmlns="http://www.w3.org/2000/svg">
<path fill-rule="evenodd" clip-rule="evenodd" d="M166.828 46.2857L167.917 44.5518C168.686 45.3502 170.21 46.1045 171.637 46.1045C173.064 46.1045 173.79 45.4873 173.79 44.6204C173.79 42.4506 167.167 44.0033 167.167 39.7763C167.167 37.9739 168.71 36.4163 171.472 36.4163C173.335 36.4163 174.738 37.0775 175.734 37.969L174.738 39.6588C174.08 38.9045 172.856 38.3363 171.497 38.3363C170.248 38.3363 169.455 38.9094 169.455 39.6833C169.455 41.6473 176.073 40.1878 176.073 44.5714C176.073 46.511 174.462 47.9951 171.516 47.9951C169.663 48 167.96 47.4073 166.828 46.2857ZM160.766 45.022V38.6498H158.952V36.5486H160.766V33.5363H163.146V36.5486H165.367V38.6498H163.146V44.4294C163.146 45.1837 163.509 45.7323 164.187 45.7323C164.641 45.7323 165.072 45.551 165.251 45.3453L165.817 47.1527C165.386 47.5641 164.685 47.858 163.572 47.858C161.743 47.8531 160.766 46.849 160.766 45.022ZM152.692 38.3853C150.65 38.3853 149.721 39.9624 149.61 41.3094H155.778C155.73 40.0065 154.85 38.3853 152.692 38.3853ZM147.138 42.2008C147.138 39.0025 149.45 36.4212 152.692 36.4212C155.982 36.4212 158.091 38.9584 158.091 42.4261V42.9943H149.634C149.818 44.6596 151.061 46.031 153.127 46.031C154.192 46.031 155.464 45.5951 156.233 44.8212L157.322 46.3984C156.233 47.4514 154.622 48 152.876 48C149.586 48 147.138 45.6931 147.138 42.2008ZM143.297 47.6865L139.939 43.1412L138.42 44.7184V47.6865H136.04V32.4539H138.42V41.9755L143.248 36.6514H146.195L141.637 41.6522L146.287 47.6816H143.297V47.6865ZM123.868 42.2008C123.868 38.8653 126.205 36.4212 129.538 36.4212C131.667 36.4212 132.963 37.3371 133.732 38.3853L132.17 39.8449C131.555 38.978 130.718 38.542 129.654 38.542C127.661 38.542 126.345 40.0506 126.345 42.1959C126.345 44.3412 127.661 45.8743 129.654 45.8743C130.718 45.8743 131.56 45.4188 132.17 44.5714L133.732 46.0359C132.958 47.089 131.667 48 129.538 48C126.205 48 123.868 45.5559 123.868 42.2008ZM118.856 33.938C118.856 33.1151 119.538 32.4539 120.332 32.4539C121.144 32.4539 121.807 33.1151 121.807 33.938C121.807 34.7608 121.149 35.422 120.332 35.422C119.538 35.422 118.856 34.7608 118.856 33.938ZM119.151 47.7992H121.531V36.769H119.151V47.7992ZM112.436 45.022V38.6498H110.622V36.5486H112.436V33.5363H114.816V36.5486H117.037V38.6498H114.816V44.4294C114.816 45.1837 115.179 45.7323 115.861 45.7323C116.316 45.7323 116.747 45.551 116.926 45.3453L117.492 47.1527C117.061 47.5641 116.36 47.858 115.247 47.858C113.413 47.8531 112.436 46.849 112.436 45.022ZM3.82673 3.97714H0V0.0881633H8.64038C10.9238 0.0881633 13.096 0.915918 14.7602 2.41959C16.4728 3.96735 17.4936 6.09796 17.6242 8.4098C17.7694 10.9078 16.9179 13.2931 15.215 15.1249C13.5411 16.9322 11.1802 17.9657 8.75165 17.9657H7.88084V14.0816H8.75165C10.1304 14.0816 11.4705 13.4939 12.4284 12.4604C13.396 11.4171 13.8846 10.0653 13.8024 8.64C13.6475 5.98041 11.427 3.97224 8.64038 3.97224H3.82673V3.97714ZM3.83157 7.86122V19.1461H7.876V23.0302H0V22.5992V7.86122H3.83157ZM176.02 0.333061V0H177.239V0.333061H176.828V1.38612H176.426V0.333061H176.02ZM177.931 0L178.182 0.798367L178.429 0H179V1.38612H178.632V0.382041L178.332 1.38612H178.018L177.718 0.382041V1.38612H177.35V0H177.931ZM62.5242 23.0204H66.4961V6.78857H62.5242V23.0204ZM62.4952 2.03265C62.4952 -0.666122 66.559 -0.666122 66.559 2.03265C66.559 4.73143 62.4952 4.73143 62.4952 2.03265ZM31.7072 14.9388C31.7072 18.0147 33.8213 19.8465 36.4531 19.8465C42.6939 19.8465 42.6939 10.0604 36.4531 10.0604C33.8213 10.0604 31.7072 11.8629 31.7072 14.9388ZM41.199 6.88653H45.1273V23.0204H41.2039L41.1942 20.6645C40.2847 22.5649 37.7787 23.4808 35.9935 23.5102C31.2476 23.5445 27.7353 20.5959 27.7353 14.9388C27.7353 9.37469 31.4072 6.46531 36.0903 6.49469C38.2334 6.49469 40.2847 7.50857 41.1942 9.1151L41.199 6.88653ZM125.552 6.62694C130.109 6.62694 132.354 9.44816 132.354 14.2971V23.0204H128.382V14.2971C128.382 12.1665 127.501 10.3641 125.353 10.3641C123.205 10.3641 121.87 12.2302 121.87 14.3657V23.0204H117.898V14.3608C117.898 12.2302 116.79 10.2955 114.608 10.2955C112.46 10.2955 111.188 12.2302 111.188 14.3608V23.0204H107.216V6.82286H111.193L111.188 8.79184C112.035 7.15102 113.888 6.56327 115.421 6.56327C117.342 6.56327 119.262 7.35184 120.172 9.58041C121.614 7.28327 123.466 6.62694 125.552 6.62694ZM135.368 23.0204H139.306V0.0979592H135.368V23.0204ZM100.303 15.1151V6.85714H104.241V23.0547H100.429L100.434 20.8555C98.7741 22.4963 97.2405 23.28 94.9958 23.28C91.1545 23.28 88.3534 20.3608 88.3534 15.3453V6.85714H92.3253V15.3159C92.3253 17.7747 93.6605 19.6457 96.2004 19.6457C98.6435 19.6408 100.303 17.5788 100.303 15.1151ZM156.262 12.8522C159.291 13.0433 163.132 13.7094 163.132 17.8776C163.132 20.6449 160.819 23.0302 156.228 23.0302C153.688 23.0302 151.149 22.6188 148.807 20.2286L150.762 17.4612C151.898 18.7004 154.506 19.6261 156.296 19.6555C157.791 19.6849 159.194 18.9257 159.194 17.7796C159.194 16.6971 158.284 16.2514 156.001 16.1241C152.972 15.8988 149.359 14.8212 149.359 11.2555C149.359 7.63102 153.2 6.35755 156.132 6.35755C158.638 6.35755 160.524 6.83755 162.382 8.42449L160.166 10.9714C159.029 9.92326 157.723 9.57061 156.194 9.57061C154.308 9.57061 153.263 10.1437 153.263 11.1282C153.268 12.1518 154.211 12.7249 156.262 12.8522ZM142.334 23.0204H146.306V6.78857H142.334V23.0204ZM78.5665 6.59265C82.3448 6.59265 85.3685 9.44327 85.3685 14.5273V23.0204H81.3966V14.5616C81.3966 12.1029 80.0614 10.2318 77.5215 10.2318C75.0784 10.2318 73.419 12.2988 73.419 14.7576V23.0204H69.481V6.82286H73.2884V9.01714C74.9188 7.41061 76.5443 6.59265 78.5665 6.59265ZM142.228 2.03265C142.228 -0.666122 146.291 -0.666122 146.291 2.03265C146.291 4.73143 142.228 4.73143 142.228 2.03265ZM20.7737 23.0204H24.7117V0.0979592H20.7737V23.0204ZM49.7959 6.88653C50.5893 6.87674 51.0682 6.45061 51.1069 5.54449V0.102857L55.0788 0.117551V6.88653H59.5054V10.3298H55.0449V17.3143C55.0449 18.8571 55.8915 19.6114 57.1252 19.6114C57.7444 19.6114 58.9103 19.4155 59.5006 19.1216L59.5054 20.5371V22.7706C58.6346 23.0596 57.8315 23.1967 56.8639 23.2212C53.3807 23.3535 51.1021 21.3502 51.1021 17.3192V10.3298H48.1075V6.88653H49.7959ZM166.31 6.85224C167.104 6.84245 167.588 6.41143 167.626 5.50531V0.0636735L171.598 0.0783674V6.84735H176.025V10.2906H171.564V17.2751C171.564 18.818 172.411 19.5722 173.649 19.5722C174.269 19.5722 175.435 19.3763 176.025 19.0776L176.03 20.4931V22.7265C175.159 23.0155 174.361 23.1527 173.388 23.1771C169.905 23.3094 167.626 21.3061 167.626 17.2751V10.2955H164.632V6.85224H166.31Z" fill="#6C6E70"/>
</svg>
