<?xml version="1.0" encoding="utf-8"?>
<!-- Generator: Adobe Illustrator 17.0.0, SVG Export Plug-In . SVG Version: 6.00 Build 0)  -->
<!DOCTYPE svg PUBLIC "-//W3C//DTD SVG 1.1//EN" "http://www.w3.org/Graphics/SVG/1.1/DTD/svg11.dtd">
<svg version="1.1" id="Layer_1" xmlns="http://www.w3.org/2000/svg" xmlns:xlink="http://www.w3.org/1999/xlink" x="0px" y="0px"
	 width="100px" height="100px" viewBox="0 0 100 100" enable-background="new 0 0 100 100" xml:space="preserve">
<g>
	<polygon fill="#555557" points="20.972,29.307 21.901,31.757 24.258,29.239 25.187,32.166 27.33,30.328 28.545,32.71 31.474,30.6 
		32.117,32.846 34.974,30.873 27.044,27.401 	"/>
	<polygon fill="#555557" points="25.33,36.726 24.258,34.276 27.759,35.774 26.902,33.323 29.688,35.297 30.473,32.915 
		33.76,34.412 	"/>
	<polygon fill="#555557" points="51.691,19.403 60.371,24.1 53.941,27.571 59.621,31.451 53.727,36.454 60.264,39.517 
		53.299,46.052 60.371,47.072 53.513,53.403 	"/>
	<path fill="#231F20" d="M41.726,69.499l-0.594,3.742c0,0-8.238-1.101-9.945,2.2c-1.707,3.302,12.172,2.274,13.137,0.073
		l0.594-6.089L41.726,69.499z"/>
	<path fill="#231F20" d="M49.163,72.39l-0.15,3.782c0,0-8.316-0.213-9.623,3.25c-1.308,3.463,12.363,0.959,13.062-1.331
		l-0.127-6.114L49.163,72.39z"/>
	<path fill="#231F20" d="M68.32,69.91l0.47,3.758c0,0,8.271-0.854,9.868,2.498c1.598,3.351-12.241,1.909-13.132-0.32l-0.393-6.104
		L68.32,69.91z"/>
	<path fill="#231F20" d="M60.792,72.578l0.024,3.784c0,0,8.319,0.036,9.511,3.537c1.193,3.5-12.389,0.588-13.012-1.722l0.328-6.107
		L60.792,72.578z"/>
	<path fill="#E0E1E1" d="M39.352,16.087c-5.534,0.084-15.856,0.608-18.902,6.098c-1.071,1.932-1.041,4.981-0.29,7.784l6.587,0.984
		c6.109-4.542,11.598-9.507,17.55-14.427C42.654,16.212,40.983,16.062,39.352,16.087z"/>
	<path fill="#767779" d="M50.06,18.399c-1.794-0.859-3.758-1.488-5.764-1.872c-5.952,4.92-11.442,9.885-17.55,14.427l7.597,1.134
		c6.765-1.092,13.452-2.502,20.125-3.907C54.313,24.037,54.148,20.358,50.06,18.399z"/>
	<path fill="#C0C1C3" d="M42.261,49.704c-0.402-0.67-0.85-1.34-1.235-2.052c-1.144,1.405-2.265,2.822-3.398,4.233
		c0.145,3.631,0.08,9.807,1.295,14.287c3.525-2.075,7.027-4.193,10.398-6.481C46.897,56.453,44.441,53.189,42.261,49.704z"/>
	<path fill="#767779" d="M49.32,59.692c-3.37,2.288-6.873,4.406-10.398,6.481c0.519,1.914,1.27,3.521,2.375,4.484
		c1.837,1.601,9.422,2.543,16.896,2.511C55.807,68.402,52.594,64.07,49.32,59.692z"/>
	<path fill="#F2F3F3" d="M53.834,53.812c0.643-7.657,0.643-5.147,0.644-13.179c0-2.236,0.045-4.48,0.061-6.723
		c-2.405,2.267-4.863,4.514-7.349,6.811c-2.239,2.223-4.236,4.562-6.164,6.933c0.385,0.712,0.833,1.382,1.235,2.052
		c2.144,3.426,4.555,6.64,6.938,9.827c1.481-1.984,3.088-3.849,4.685-5.722C53.868,53.81,53.85,53.811,53.834,53.812z"/>
	<path fill="#999B9F" d="M53.884,53.81c-1.597,1.873-3.204,3.737-4.685,5.722c3.316,4.433,6.578,8.812,8.994,13.637
		c0.869-0.004,1.738-0.02,2.595-0.051c1.138-6.32,2.621-12.55,5.126-18.472C61.029,53.902,55.969,53.737,53.884,53.81z"/>
	<path fill="#767779" d="M77.169,59.536c-0.87-2.599-5.96-4.084-11.255-4.891c-2.505,5.922-3.988,12.151-5.126,18.472
		c6.051-0.216,11.567-1.112,13.301-2.862C76.378,67.948,78.206,62.643,77.169,59.536z"/>
	<path fill="#999B9F" d="M54.54,33.909c0.013-1.814,0.007-3.628-0.061-5.435c-0.004-0.098-0.007-0.195-0.011-0.293
		c-6.673,1.405-13.36,2.815-20.125,3.907l0.989,0.147l-11.228,4.024c3.714,2.36,9.533,1.24,13.657,1.012v2.45
		c-0.404,6.129-0.633,4.9-0.194,11.015c0.025,0.345,0.044,0.731,0.061,1.15c3.046-3.79,5.995-7.625,9.563-11.166
		C49.676,38.423,52.134,36.176,54.54,33.909z"/>
	<ellipse fill="#FFFFFF" cx="41.654" cy="25.938" rx="3" ry="2.859"/>
	<ellipse fill="#231F20" cx="41.654" cy="25.938" rx="1.232" ry="1.225"/>
	<path fill="#767779" d="M70.337,59.427c0,0,5.572-2.45,8.144-6.739c2.572-4.288,2.357,5.718-3.643,9.597L70.337,59.427z"/>
</g>
</svg>
