<svg width="20" height="20" viewBox="0 0 20 20" fill="none" xmlns="http://www.w3.org/2000/svg">
<circle cx="10" cy="10" r="10" fill="#37A7F8"/>
<path d="M10.0015 4.99976C9.01256 4.99976 8.04586 5.293 7.22362 5.84241C6.40137 6.39181 5.76051 7.17271 5.38207 8.08634C5.00363 8.99997 4.90461 10.0053 5.09754 10.9752C5.29047 11.9451 5.76667 12.836 6.46593 13.5353C7.1652 14.2345 8.05611 14.7108 9.02601 14.9037C9.99592 15.0966 11.0013 14.9976 11.9149 14.6192C12.8285 14.2407 13.6094 13.5998 14.1588 12.7776C14.7082 11.9554 15.0015 10.9887 15.0015 9.99975C15.0015 9.34315 14.8721 8.69297 14.6209 8.08634C14.3696 7.47971 14.0013 6.92851 13.537 6.46422C13.0727 5.99993 12.5215 5.63163 11.9149 5.38036C11.3083 5.12908 10.6581 4.99976 10.0015 4.99976ZM12.0015 10.4998H10.0015C9.86886 10.4998 9.74168 10.4471 9.64791 10.3533C9.55414 10.2595 9.50147 10.1324 9.50147 9.99975V7.49976C9.50147 7.36715 9.55414 7.23997 9.64791 7.1462C9.74168 7.05243 9.86886 6.99976 10.0015 6.99976C10.1341 6.99976 10.2613 7.05243 10.355 7.1462C10.4488 7.23997 10.5015 7.36715 10.5015 7.49976V9.49975H12.0015C12.1341 9.49975 12.2613 9.55243 12.355 9.6462C12.4488 9.73997 12.5015 9.86715 12.5015 9.99975C12.5015 10.1324 12.4488 10.2595 12.355 10.3533C12.2613 10.4471 12.1341 10.4998 12.0015 10.4998Z" fill="white"/>
</svg>
