<svg width="14" height="16" viewBox="0 0 14 16" fill="none" xmlns="http://www.w3.org/2000/svg">
    <path fill-rule="evenodd" clip-rule="evenodd"
        d="M6.77191 0.00407228C3.58446 0.115611 0.936476 2.5957 0.63056 5.76143C0.568061 6.39457 0.604244 7.00803 0.716085 7.59525C0.716085 7.59525 0.725953 7.66414 0.758847 7.79536C0.85753 8.23495 1.00555 8.66143 1.18976 9.06165C1.8312 10.5773 3.31473 13.1131 6.64362 15.8721C6.84757 16.0426 7.14691 16.0426 7.35414 15.8721C10.683 13.1164 12.1666 10.5805 12.8113 9.05837C12.9988 8.65814 13.1435 8.23495 13.2422 7.79208C13.2718 7.66414 13.285 7.59197 13.285 7.59197C13.3606 7.1983 13.4001 6.7948 13.4001 6.38145C13.4001 2.77941 10.41 -0.123869 6.77191 0.00407228ZM6.99888 9.55701C5.2818 9.55701 3.89038 8.16934 3.89038 6.4569C3.89038 4.74446 5.2818 3.35679 6.99888 3.35679C8.71596 3.35679 10.1074 4.74446 10.1074 6.4569C10.1074 8.16934 8.71596 9.55701 6.99888 9.55701Z"
        fill="#37A7F8" />
</svg>