<svg width="28" height="34" viewBox="0 0 28 34" fill="none" xmlns="http://www.w3.org/2000/svg">
    <filter id="shadow">
        <feDropShadow dx="0" dy="8" stdDeviation="12" flood-color="#000000" flood-opacity="0.1" />
    </filter>
    <mask id="path-outside" maskUnits="userSpaceOnUse" x="0.200195" y="0" width="28" height="34" fill="black">
        <rect fill="#ffffff" x="0.200195" width="28" height="34" />
        <path fill-rule="evenodd" clip-rule="evenodd"
            d="M13.5438 1.00814C7.16892 1.23122 1.87295 6.1914 1.26112 12.5229C1.13612 13.7891 1.20849 15.0161 1.43217 16.1905C1.43217 16.1905 1.45191 16.3283 1.51769 16.5907C1.71506 17.4699 2.01111 18.3229 2.37952 19.1233C3.6624 22.1545 6.62946 27.2262 13.2872 32.7441C13.6951 33.0853 14.2938 33.0853 14.7083 32.7441C21.3661 27.2328 24.3331 22.1611 25.6226 19.1167C25.9976 18.3163 26.287 17.4699 26.4844 16.5842C26.5436 16.3283 26.5699 16.1839 26.5699 16.1839C26.7213 15.3966 26.8002 14.5896 26.8002 13.7629C26.8002 6.55882 20.82 0.752262 13.5438 1.00814ZM13.9978 20.114C10.5636 20.114 7.78076 17.3387 7.78076 13.9138C7.78076 10.4889 10.5636 7.71358 13.9978 7.71358C17.4319 7.71358 20.2148 10.4889 20.2148 13.9138C20.2148 17.3387 17.4319 20.114 13.9978 20.114Z" />
    </mask>
    <path fill-rule="evenodd" clip-rule="evenodd"
        d="M13.5438 1.00814C7.16892 1.23122 1.87295 6.1914 1.26112 12.5229C1.13612 13.7891 1.20849 15.0161 1.43217 16.1905C1.43217 16.1905 1.45191 16.3283 1.51769 16.5907C1.71506 17.4699 2.01111 18.3229 2.37952 19.1233C3.6624 22.1545 6.62946 27.2262 13.2872 32.7441C13.6951 33.0853 14.2938 33.0853 14.7083 32.7441C21.3661 27.2328 24.3331 22.1611 25.6226 19.1167C25.9976 18.3163 26.287 17.4699 26.4844 16.5842C26.5436 16.3283 26.5699 16.1839 26.5699 16.1839C26.7213 15.3966 26.8002 14.5896 26.8002 13.7629C26.8002 6.55882 20.82 0.752262 13.5438 1.00814ZM13.9978 20.114C10.5636 20.114 7.78076 17.3387 7.78076 13.9138C7.78076 10.4889 10.5636 7.71358 13.9978 7.71358C17.4319 7.71358 20.2148 10.4889 20.2148 13.9138C20.2148 17.3387 17.4319 20.114 13.9978 20.114Z"
        fill="#64B010" />
    <path filter="url(#shadow)"
        d="M13.5438 1.00814L13.5788 2.00753L13.579 2.00753L13.5438 1.00814ZM1.26112 12.5229L2.25628 12.6211L2.25648 12.619L1.26112 12.5229ZM1.51769 16.5907L2.49341 16.3717L2.4907 16.3596L2.48768 16.3476L1.51769 16.5907ZM2.37952 19.1233L3.30044 18.7336L3.2944 18.7193L3.28792 18.7052L2.37952 19.1233ZM13.2872 32.7441L13.9288 31.9771L13.9254 31.9742L13.2872 32.7441ZM14.7083 32.7441L15.3438 33.5162L15.3459 33.5144L14.7083 32.7441ZM25.6226 19.1167L24.717 18.6925L24.7091 18.7095L24.7018 18.7267L25.6226 19.1167ZM26.4844 16.5842L25.5101 16.3587L25.5084 16.3667L26.4844 16.5842ZM26.5699 16.1839L25.5879 15.9952L25.5862 16.0046L26.5699 16.1839ZM13.5089 0.00875628C6.63564 0.24927 0.926136 5.59283 0.265756 12.4267L2.25648 12.619C2.81977 6.78998 7.7022 2.21317 13.5788 2.00753L13.5089 0.00875628ZM0.265956 12.4246C0.130934 13.7924 0.209469 15.1156 0.449828 16.3776L2.41451 16.0034C2.20751 14.9165 2.14131 13.7858 2.25628 12.6211L0.265956 12.4246ZM1.43217 16.1905C0.442274 16.3323 0.442288 16.3324 0.442302 16.3325C0.442306 16.3325 0.442321 16.3326 0.44233 16.3327C0.442349 16.3328 0.442369 16.333 0.442389 16.3331C0.442428 16.3334 0.442469 16.3337 0.442512 16.3339C0.442596 16.3345 0.442686 16.3352 0.442782 16.3358C0.442973 16.3371 0.443186 16.3385 0.443421 16.3401C0.443892 16.3433 0.444454 16.347 0.445113 16.3512C0.446431 16.3596 0.448137 16.3702 0.450284 16.3829C0.454578 16.4083 0.460635 16.4421 0.468868 16.4842C0.485336 16.5684 0.510509 16.6855 0.547706 16.8339L2.48768 16.3476C2.45909 16.2335 2.4415 16.1505 2.43165 16.1002C2.42673 16.075 2.42374 16.058 2.42228 16.0494C2.42155 16.045 2.4212 16.0428 2.42118 16.0427C2.42117 16.0426 2.42124 16.0431 2.42139 16.0441C2.42147 16.0446 2.42156 16.0452 2.42167 16.046C2.42173 16.0464 2.42179 16.0468 2.42186 16.0473C2.42189 16.0475 2.42192 16.0477 2.42196 16.048C2.42197 16.0481 2.42199 16.0482 2.42201 16.0483C2.42202 16.0484 2.42203 16.0485 2.42204 16.0485C2.42205 16.0486 2.42207 16.0487 1.43217 16.1905ZM0.541977 16.8098C0.755724 17.7619 1.0753 18.6814 1.47112 19.5414L3.28792 18.7052C2.94691 17.9643 2.6744 17.1779 2.49341 16.3717L0.541977 16.8098ZM1.4586 19.5131C2.80338 22.6905 5.8669 27.893 12.6491 33.5141L13.9254 31.9742C7.39202 26.5594 4.52142 21.6185 3.30044 18.7336L1.4586 19.5131ZM12.6457 33.5112C13.4278 34.1654 14.5631 34.1588 15.3438 33.5162L14.0727 31.972C14.0245 32.0118 13.9625 32.0052 13.9288 31.9771L12.6457 33.5112ZM15.3459 33.5144C22.1287 27.8997 25.1922 22.697 26.5434 19.5068L24.7018 18.7267C23.4741 21.6252 20.6034 26.5659 14.0706 31.9738L15.3459 33.5144ZM26.5281 19.541C26.9343 18.674 27.2473 17.7583 27.4605 16.8017L25.5084 16.3667C25.3268 17.1815 25.0609 17.9585 24.717 18.6925L26.5281 19.541ZM27.4587 16.8096C27.4902 16.6731 27.5134 16.565 27.5289 16.4893C27.5367 16.4514 27.5426 16.4216 27.5467 16.4005C27.5487 16.3899 27.5503 16.3815 27.5515 16.3752C27.5521 16.3721 27.5526 16.3696 27.5529 16.3676C27.5531 16.3666 27.5533 16.3657 27.5534 16.365C27.5535 16.3647 27.5535 16.3643 27.5536 16.364C27.5536 16.3639 27.5536 16.3638 27.5537 16.3636C27.5537 16.3636 27.5537 16.3635 27.5537 16.3635C27.5537 16.3634 27.5537 16.3634 27.5537 16.3634C27.5537 16.3633 27.5537 16.3633 26.5699 16.1839C25.5862 16.0046 25.5862 16.0045 25.5862 16.0045C25.5862 16.0045 25.5862 16.0044 25.5862 16.0044C25.5862 16.0044 25.5862 16.0043 25.5862 16.0043C25.5862 16.0042 25.5862 16.0041 25.5863 16.004C25.5863 16.0039 25.5863 16.0038 25.5863 16.0037C25.5863 16.0035 25.5863 16.0035 25.5863 16.0037C25.5863 16.0039 25.5861 16.0047 25.5859 16.006C25.5854 16.0087 25.5845 16.0136 25.5831 16.0205C25.5804 16.0344 25.576 16.0567 25.5698 16.0869C25.5574 16.1473 25.5378 16.2393 25.5102 16.3587L27.4587 16.8096ZM27.552 16.3727C27.7151 15.5239 27.8002 14.6537 27.8002 13.7629H25.8002C25.8002 14.5255 25.7274 15.2693 25.5879 15.9952L27.552 16.3727ZM27.8002 13.7629C27.8002 5.99221 21.35 -0.266995 13.5087 0.00876236L13.579 2.00753C20.29 1.77152 25.8002 7.12544 25.8002 13.7629H27.8002ZM13.9978 19.114C11.1133 19.114 8.78076 16.7839 8.78076 13.9138H6.78076C6.78076 17.8935 10.0139 21.114 13.9978 21.114V19.114ZM8.78076 13.9138C8.78076 11.0437 11.1133 8.71358 13.9978 8.71358V6.71358C10.0139 6.71358 6.78076 9.93408 6.78076 13.9138H8.78076ZM13.9978 8.71358C16.8822 8.71358 19.2148 11.0437 19.2148 13.9138H21.2148C21.2148 9.93408 17.9817 6.71358 13.9978 6.71358V8.71358ZM19.2148 13.9138C19.2148 16.7839 16.8822 19.114 13.9978 19.114V21.114C17.9817 21.114 21.2148 17.8935 21.2148 13.9138H19.2148Z"
        fill="#ffffff" mask="url(#path-outside)" />
</svg>