<svg width="23" height="30" viewBox="0 0 23 30" fill="none" xmlns="http://www.w3.org/2000/svg">
<path fill-rule="evenodd" clip-rule="evenodd" d="M4.98946 5.0854H0V0H11.2657C14.243 0 17.0752 1.08241 19.2451 3.04868C21.478 5.07259 22.8089 7.85867 22.9793 10.8817C23.1685 14.1482 22.0583 17.2673 19.838 19.6627C17.6555 22.026 14.5773 23.3775 11.4108 23.3775H10.2754V18.2985H11.4108C13.2085 18.2985 14.9558 17.5299 16.2047 16.1785C17.4663 14.8143 18.1033 13.0465 17.9961 11.1828C17.7943 7.70495 14.899 5.07899 11.2657 5.07899H4.98946V5.0854ZM4.99577 10.1644V24.921H10.2691V30H0V29.4364V10.1644H4.99577Z" fill="#FFFFFF"/>
</svg>