<svg width="16" height="16" viewBox="0 0 16 16" fill="none" xmlns="http://www.w3.org/2000/svg">
<path fill-rule="evenodd" clip-rule="evenodd" d="M8 14C11.3137 14 14 11.3137 14 8C14 4.68629 11.3137 2 8 2C4.68629 2 2 4.68629 2 8C2 11.3137 4.68629 14 8 14ZM8 15C11.866 15 15 11.866 15 8C15 4.13401 11.866 1 8 1C4.13401 1 1 4.13401 1 8C1 11.866 4.13401 15 8 15Z" fill="#9B9B9B"/>
<path fill-rule="evenodd" clip-rule="evenodd" d="M9.20218 12.5558C9.68002 11.4409 10 9.83081 10 8C10 6.16919 9.68002 4.55915 9.20218 3.44417C8.96249 2.8849 8.70277 2.4962 8.4653 2.26184C8.23213 2.03173 8.07605 2 8 2C7.92395 2 7.76787 2.03173 7.5347 2.26184C7.29723 2.4962 7.03751 2.8849 6.79782 3.44417C6.31998 4.55915 6 6.16919 6 8C6 9.83081 6.31998 11.4409 6.79782 12.5558C7.03751 13.1151 7.29723 13.5038 7.5347 13.7382C7.76787 13.9683 7.92395 14 8 14C8.07605 14 8.23213 13.9683 8.4653 13.7382C8.70277 13.5038 8.96249 13.1151 9.20218 12.5558ZM8 15C9.65685 15 11 11.866 11 8C11 4.13401 9.65685 1 8 1C6.34315 1 5 4.13401 5 8C5 11.866 6.34315 15 8 15Z" fill="#9B9B9B"/>
<path fill-rule="evenodd" clip-rule="evenodd" d="M1.5 6C1.5 5.72386 1.72386 5.5 2 5.5H14C14.2761 5.5 14.5 5.72386 14.5 6C14.5 6.27614 14.2761 6.5 14 6.5H2C1.72386 6.5 1.5 6.27614 1.5 6Z" fill="#9B9B9B"/>
<path fill-rule="evenodd" clip-rule="evenodd" d="M1.5 10C1.5 9.72386 1.72386 9.5 2 9.5H14C14.2761 9.5 14.5 9.72386 14.5 10C14.5 10.2761 14.2761 10.5 14 10.5H2C1.72386 10.5 1.5 10.2761 1.5 10Z" fill="#9B9B9B"/>
</svg>
