<svg width="12" height="13" viewBox="0 0 12 13" fill="none" xmlns="http://www.w3.org/2000/svg">
<path fill-rule="evenodd" clip-rule="evenodd" d="M11.9817 5.05945C11.939 4.9077 11.8035 4.80082 11.6461 4.7948L7.65067 4.70887L6.33945 0.756314C6.29593 0.604557 6.15731 0.5 5.99963 0.5C5.84195 0.5 5.70333 0.604557 5.65981 0.756314L4.34859 4.70887L0.353136 4.7948C0.195907 4.80108 0.0605313 4.90786 0.017607 5.05945C-0.0297795 5.21285 0.0204498 5.37971 0.14461 5.48134L3.3257 8.00668L2.1698 12.0074C2.12443 12.1606 2.17635 12.3261 2.30109 12.4258C2.42262 12.5221 2.59352 12.5249 2.71814 12.4327L5.99963 10.0414L9.28198 12.431C9.4066 12.5232 9.5775 12.5204 9.69903 12.4241C9.82356 12.3242 9.87544 12.1589 9.83032 12.0056L8.67528 8.00754L11.8572 5.4822C11.9808 5.3798 12.03 5.21259 11.9817 5.05945Z" fill="#DDDDDD"/>
</svg>
