<svg width="12" height="12" viewBox="0 0 12 12" fill="none" xmlns="http://www.w3.org/2000/svg">
<path fill-rule="evenodd" clip-rule="evenodd" d="M11.9817 4.55945C11.9387 4.40786 11.8034 4.30108 11.6461 4.2948L7.65067 4.20887L6.33945 0.256314C6.29593 0.104557 6.15731 0 5.99963 0C5.84195 0 5.70333 0.104557 5.65981 0.256314L4.34859 4.20887L0.353136 4.2948C0.195907 4.30108 0.0605313 4.40786 0.017607 4.55945C-0.0297795 4.71285 0.0204498 4.87971 0.14461 4.98134L3.32656 7.50668L2.17065 11.5074C2.12554 11.6606 2.17741 11.8259 2.30195 11.9258C2.42348 12.0221 2.59437 12.0249 2.719 11.9327L6.00049 9.54139L9.28112 11.931C9.40574 12.0232 9.57664 12.0204 9.69817 11.9241C9.8227 11.8242 9.87458 11.6589 9.82946 11.5056L8.67528 7.50754L11.8572 4.9822C11.9808 4.8798 12.03 4.71259 11.9817 4.55945Z" fill="#FFD600"/>
</svg>
